<?xml version="1.0" encoding="UTF-8"?>
<svg version="1.1" xmlns="http://www.w3.org/2000/svg" width="110" height="73">
<path d="M0 0 C36.3 0 72.6 0 110 0 C110 24.09 110 48.18 110 73 C73.7 73 37.4 73 0 73 C0 48.91 0 24.82 0 0 Z " fill="#F6FAFB" transform="translate(0,0)"/>
<path d="M0 0 C18.48 0 36.96 0 56 0 C56 24.09 56 48.18 56 73 C36.2 73 16.4 73 -4 73 C-5.485 68.545 -5.485 68.545 -7 64 C-8.16862634 61.6152015 -9.39361543 59.25672705 -10.6875 56.9375 C-11.31011719 55.81214844 -11.93273437 54.68679687 -12.57421875 53.52734375 C-13.27998047 52.27630859 -13.27998047 52.27630859 -14 51 C-15.485 51.495 -15.485 51.495 -17 52 C-23.12455118 52.50201239 -26.12517646 52.09928344 -31 48 C-35.2493141 43.29130059 -36.41861467 39.57563006 -36.34765625 33.3515625 C-35.61095309 28.36846923 -32.45659879 25.29013036 -28.8125 22.0625 C-23.21976082 19.94968742 -17.85460047 20.23257912 -12.375 22.5 C-11.199375 23.2425 -11.199375 23.2425 -10 24 C-10 24.99 -10 25.98 -10 27 C-11.98 27.99 -11.98 27.99 -14 29 C-14.99 28.34 -15.98 27.68 -17 27 C-21.32351988 26.43954372 -23.29704773 26.5213942 -26.9375 29 C-29.24498972 32.35634868 -29.69967592 34.09036682 -29.4140625 38.06640625 C-28.71851452 41.3144841 -27.51666056 42.87051798 -25 45 C-21.08727759 45.96101954 -18.83347302 46.27782434 -15 45 C-14.67 43.02 -14.34 41.04 -14 39 C-15.98 39 -17.96 39 -20 39 C-20 37.35 -20 35.7 -20 34 C-16.04 34 -12.08 34 -8 34 C-8.00902344 34.92039063 -8.01804687 35.84078125 -8.02734375 36.7890625 C-7.99769531 38.05492187 -7.96804687 39.32078125 -7.9375 40.625 C-7.92589844 41.85476562 -7.91429688 43.08453125 -7.90234375 44.3515625 C-6.85581756 50.85505873 -6.85581756 50.85505873 0 63 C15.84 63.33 31.68 63.66 48 64 C48 45.52 48 27.04 48 8 C32.49 8 16.98 8 1 8 C-1 4 -1 4 0 0 Z " fill="#4C595E" transform="translate(54,0)"/>
<path d="M0 0 C0.99 0.495 0.99 0.495 2 1 C1.67 1.66 1.34 2.32 1 3 C16.84 3 32.68 3 49 3 C52.65426604 10.91757641 56.20082748 18.71650743 59.375 26.8125 C59.72949219 27.70775391 60.08398438 28.60300781 60.44921875 29.52539062 C61.30276418 31.682323 62.15301694 33.84048437 63 36 C66.14479323 32.85520677 67.18224336 28.75223578 68.78125 24.65234375 C70 22 70 22 72 21 C74.31 26.28 76.62 31.56 79 37 C81.31 31.72 83.62 26.44 86 21 C87.98 21 89.96 21 92 21 C89.76188601 28.00406547 87.12994735 34.77276643 84.3125 41.5625 C83.89677734 42.57119141 83.48105469 43.57988281 83.05273438 44.61914062 C82.03784021 47.0805506 81.02021747 49.54079283 80 52 C79.34 52 78.68 52 78 52 C77.57847656 50.92878906 77.15695313 49.85757813 76.72265625 48.75390625 C76.16940681 47.35671698 75.61601398 45.95958449 75.0625 44.5625 C74.78470703 43.85544922 74.50691406 43.14839844 74.22070312 42.41992188 C73.03777966 38.95326119 73.03777966 38.95326119 71 36 C67.535 43.92 67.535 43.92 64 52 C61.17400409 49.17400409 60.07854326 45.71466104 58.59375 42.0703125 C58.26838257 41.28357147 57.94301514 40.49683044 57.60778809 39.68624878 C56.5671538 37.16774283 55.53330066 34.64652262 54.5 32.125 C53.46550027 29.61113199 52.42959126 27.09785561 51.39221191 24.58517456 C50.7469525 23.02113748 50.10356674 21.45632578 49.46228027 19.89065552 C49.16857544 19.17666595 48.87487061 18.46267639 48.57226562 17.72705078 C48.31626587 17.1024295 48.06026611 16.47780823 47.79650879 15.83425903 C46.93751126 13.85609633 45.96446923 11.92893845 45 10 C33.12 9.67 21.24 9.34 9 9 C9 27.15 9 45.3 9 64 C20.05471364 63.84180109 20.05471364 63.84180109 31.10864258 63.63964844 C32.49559297 63.62796487 33.88255707 63.61777225 35.26953125 63.609375 C35.98830444 63.58891113 36.70707764 63.56844727 37.44763184 63.54736328 C40.65051045 63.54511919 42.50966938 63.57673294 44.9831543 65.71191406 C46 68 46 68 46 73 C30.82 73 15.64 73 0 73 C0 48.91 0 24.82 0 0 Z " fill="#0E8594" transform="translate(0,0)"/>
<path d="M0 0 C0.495 0.99 0.495 0.99 1 2 C1.99 2 2.98 2 4 2 C5.76462683 5.08809695 6 6.23312136 6 10 C6.99 10 7.98 10 9 10 C13.455 20.89 13.455 20.89 18 32 C21.14479323 28.85520677 22.18224336 24.75223578 23.78125 20.65234375 C25 18 25 18 27 17 C29.31 22.28 31.62 27.56 34 33 C36.31 27.72 38.62 22.44 41 17 C42.98 17 44.96 17 47 17 C44.76188601 24.00406547 42.12994735 30.77276643 39.3125 37.5625 C38.89677734 38.57119141 38.48105469 39.57988281 38.05273438 40.61914062 C37.03784021 43.0805506 36.02021747 45.54079283 35 48 C34.34 48 33.68 48 33 48 C32.57847656 46.92878906 32.15695313 45.85757813 31.72265625 44.75390625 C31.16940681 43.35671698 30.61601398 41.95958449 30.0625 40.5625 C29.78470703 39.85544922 29.50691406 39.14839844 29.22070312 38.41992188 C28.03777966 34.95326119 28.03777966 34.95326119 26 32 C23.69 37.28 21.38 42.56 19 48 C16.17400409 45.17400409 15.07854326 41.71466104 13.59375 38.0703125 C13.26838257 37.28357147 12.94301514 36.49683044 12.60778809 35.68624878 C11.5671538 33.16774283 10.53330066 30.64652262 9.5 28.125 C8.46550027 25.61113199 7.42959126 23.09785561 6.39221191 20.58517456 C5.7469525 19.02113748 5.10356674 17.45632578 4.46228027 15.89065552 C4.16857544 15.17666595 3.87487061 14.46267639 3.57226562 13.72705078 C3.31626587 13.1024295 3.06026611 12.47780823 2.79650879 11.83425903 C1.93751126 9.85609633 0.96446923 7.92893845 0 6 C-11.88 5.67 -23.76 5.34 -36 5 C-36 4.67 -36 4.34 -36 4 C-34.9805127 3.97494385 -33.96102539 3.9498877 -32.91064453 3.92407227 C-29.13479646 3.83002996 -25.35913373 3.72980163 -21.58349609 3.62768555 C-19.94812347 3.58432462 -18.31270523 3.54265039 -16.67724609 3.50268555 C-14.32896159 3.44501088 -11.98090696 3.38130871 -9.6328125 3.31640625 C-8.89942657 3.29969376 -8.16604065 3.28298126 -7.41043091 3.26576233 C-3.57797692 3.21362038 -3.57797692 3.21362038 0 2 C0 1.34 0 0.68 0 0 Z " fill="#0F8495" transform="translate(45,4)"/>
<path d="M0 0 C17.16 0 34.32 0 52 0 C52 21.45 52 42.9 52 65 C43.9975 64.896875 35.995 64.79375 27.75 64.6875 C25.22827148 64.66260498 22.70654297 64.63770996 20.10839844 64.61206055 C18.10870488 64.57977432 16.10902844 64.54640113 14.109375 64.51171875 C13.07184082 64.50547485 12.03430664 64.49923096 10.96533203 64.49279785 C9.97098145 64.47285767 8.97663086 64.45291748 7.95214844 64.43237305 C6.6597525 64.41571846 6.6597525 64.41571846 5.34124756 64.39872742 C3 64 3 64 -1 61 C14.84 61 30.68 61 47 61 C47 42.19 47 23.38 47 4 C31.49 4 15.98 4 0 4 C0 2.68 0 1.36 0 0 Z " fill="#3F4C52" transform="translate(55,4)"/>
<path d="M0 0 C0.78375 0.495 1.5675 0.99 2.375 1.5 C2.375 2.49 2.375 3.48 2.375 4.5 C0.395 5.49 0.395 5.49 -1.625 6.5 C-2.615 5.84 -3.605 5.18 -4.625 4.5 C-8.94851988 3.93954372 -10.92204773 4.0213942 -14.5625 6.5 C-16.86998972 9.85634868 -17.32467592 11.59036682 -17.0390625 15.56640625 C-16.34351452 18.8144841 -15.14166056 20.37051798 -12.625 22.5 C-8.71227759 23.46101954 -6.45847302 23.77782434 -2.625 22.5 C-2.295 20.52 -1.965 18.54 -1.625 16.5 C-3.605 16.5 -5.585 16.5 -7.625 16.5 C-7.625 14.85 -7.625 13.2 -7.625 11.5 C-3.665 11.5 0.295 11.5 4.375 11.5 C4.43558594 12.51320313 4.49617188 13.52640625 4.55859375 14.5703125 C4.64306704 15.92188514 4.72771157 17.27344709 4.8125 18.625 C4.85181641 19.29015625 4.89113281 19.9553125 4.93164062 20.640625 C5.187152 24.65018817 5.64282413 28.54994196 6.375 32.5 C5.055 33.16 3.735 33.82 2.375 34.5 C1.055 32.52 -0.265 30.54 -1.625 28.5 C-2.615 28.83 -3.605 29.16 -4.625 29.5 C-10.74955118 30.00201239 -13.75017646 29.59928344 -18.625 25.5 C-22.8743141 20.79130059 -24.04361467 17.07563006 -23.97265625 10.8515625 C-23.23595309 5.86846923 -20.08159879 2.79013036 -16.4375 -0.4375 C-10.84476082 -2.55031258 -5.47960047 -2.26742088 0 0 Z " fill="#455155" transform="translate(41.625,22.5)"/>
<path d="M0 0 C0.99261337 0.00222061 1.98522675 0.00444122 3.00791931 0.00672913 C4.14475159 0.00684998 5.28158386 0.00697083 6.4528656 0.00709534 C7.65689026 0.0122113 8.86091492 0.01732727 10.10142517 0.02259827 C11.75120361 0.02410889 11.75120361 0.02410889 13.43431091 0.02565002 C17.56164078 0.0309009 21.68895585 0.04486201 25.81626892 0.05775452 C39.64533142 0.08869202 39.64533142 0.08869202 53.75376892 0.12025452 C53.75376892 23.88025452 53.75376892 47.64025452 53.75376892 72.12025452 C52.76376892 72.12025452 51.77376892 72.12025452 50.75376892 72.12025452 C50.75376892 49.68025452 50.75376892 27.24025452 50.75376892 4.12025452 C33.59376892 4.12025452 16.43376892 4.12025452 -1.24623108 4.12025452 C-1.57623108 4.78025452 -1.90623108 5.44025452 -2.24623108 6.12025452 C-2.62841875 4.46410794 -2.9601821 2.79568427 -3.24623108 1.12025452 C-2.24623108 0.12025452 -2.24623108 0.12025452 0 0 Z " fill="#676F73" transform="translate(56.24623107910156,-0.1202545166015625)"/>
<path d="M0 0 C1.32 0 2.64 0 4 0 C4 22.44 4 44.88 4 68 C3.01 68 2.02 68 1 68 C-0.10976041 64.67071876 -0.12030895 62.19972643 -0.11352539 58.69262695 C-0.11344986 57.39150467 -0.11337433 56.09038239 -0.11329651 54.74983215 C-0.10818985 53.3293148 -0.10297385 51.90879783 -0.09765625 50.48828125 C-0.09579091 49.03525338 -0.09436756 47.58222489 -0.09336853 46.12919617 C-0.08955246 42.30693828 -0.07972993 38.48471845 -0.06866455 34.66247559 C-0.05843087 30.76131709 -0.05386671 26.86015243 -0.04882812 22.95898438 C-0.03810686 15.30597224 -0.02104135 7.65299146 0 0 Z " fill="#5FB6BD" transform="translate(0,4)"/>
<path d="M0 0 C0.495 0.99 0.495 0.99 1 2 C1.99 2 2.98 2 4 2 C5.76462683 5.08809695 6 6.23312136 6 10 C6.99 10 7.98 10 9 10 C10.5056651 13.62267294 12.00356546 17.24850549 13.5 20.875 C13.92925781 21.90753906 14.35851563 22.94007812 14.80078125 24.00390625 C15.20683594 24.99003906 15.61289062 25.97617187 16.03125 26.9921875 C16.59682617 28.35899658 16.59682617 28.35899658 17.17382812 29.75341797 C18 32 18 32 18 34 C17.34 34 16.68 34 16 34 C16 32.68 16 31.36 16 30 C13.66924071 30.95865509 13.66924071 30.95865509 12 34 C11.50802124 32.83428467 11.50802124 32.83428467 11.00610352 31.64501953 C9.7896678 28.76361303 8.57264593 25.88245504 7.35522461 23.00146484 C6.82829628 21.75416852 6.30160216 20.50677324 5.77514648 19.25927734 C5.01868184 17.46686254 4.26130678 15.67483204 3.50390625 13.8828125 C2.82050171 12.26463623 2.82050171 12.26463623 2.12329102 10.61376953 C1.45483844 9.05835696 0.75711784 7.51423568 0 6 C-11.88 5.67 -23.76 5.34 -36 5 C-36 4.67 -36 4.34 -36 4 C-34.9805127 3.97494385 -33.96102539 3.9498877 -32.91064453 3.92407227 C-29.13479646 3.83002996 -25.35913373 3.72980163 -21.58349609 3.62768555 C-19.94812347 3.58432462 -18.31270523 3.54265039 -16.67724609 3.50268555 C-14.32896159 3.44501088 -11.98090696 3.38130871 -9.6328125 3.31640625 C-8.89942657 3.29969376 -8.16604065 3.28298126 -7.41043091 3.26576233 C-3.57797692 3.21362038 -3.57797692 3.21362038 0 2 C0 1.34 0 0.68 0 0 Z " fill="#148393" transform="translate(45,4)"/>
<path d="M0 0 C17.16 0 34.32 0 52 0 C52 1.98 52 3.96 52 6 C50.68 6.33 49.36 6.66 48 7 C47.505 5.515 47.505 5.515 47 4 C31.16 3.67 15.32 3.34 -1 3 C-0.67 2.01 -0.34 1.02 0 0 Z " fill="#D4EFF0" transform="translate(2,0)"/>
<path d="M0 0 C0.66 0 1.32 0 2 0 C2.33 23.1 2.66 46.2 3 70 C2.01 70 1.02 70 0 70 C0 46.9 0 23.8 0 0 Z " fill="#A1A9AC" transform="translate(107,2)"/>
<path d="M0 0 C0.495 0.99 0.495 0.99 1 2 C1.99 2 2.98 2 4 2 C5.76462683 5.08809695 6 6.23312136 6 10 C6.99 10.33 7.98 10.66 9 11 C8.01 12.98 7.02 14.96 6 17 C4 15 4 15 0 6 C-11.88 5.67 -23.76 5.34 -36 5 C-36 4.67 -36 4.34 -36 4 C-34.9805127 3.97494385 -33.96102539 3.9498877 -32.91064453 3.92407227 C-29.13479646 3.83002996 -25.35913373 3.72980163 -21.58349609 3.62768555 C-19.94812347 3.58432462 -18.31270523 3.54265039 -16.67724609 3.50268555 C-14.32896159 3.44501088 -11.98090696 3.38130871 -9.6328125 3.31640625 C-8.89942657 3.29969376 -8.16604065 3.28298126 -7.41043091 3.26576233 C-3.57797692 3.21362038 -3.57797692 3.21362038 0 2 C0 1.34 0 0.68 0 0 Z " fill="#3893A2" transform="translate(45,4)"/>
<path d="M0 0 C0.33 0 0.66 0 1 0 C1 22.44 1 44.88 1 68 C0.01 68 -0.98 68 -2 68 C-2 67.01 -2 66.02 -2 65 C-1.34 65 -0.68 65 0 65 C0 43.55 0 22.1 0 0 Z " fill="#5AC3D0" transform="translate(3,4)"/>
<path d="M0 0 C0.99 0.495 0.99 0.495 2 1 C1.67 1.66 1.34 2.32 1 3 C16.84 3 32.68 3 49 3 C53 12 53 12 53 14 C52.34 14 51.68 14 51 14 C50.34 11.36 49.68 8.72 49 6 C48.01 6 47.02 6 46 6 C46 5.34 46 4.68 46 4 C30.82 4 15.64 4 0 4 C0 2.68 0 1.36 0 0 Z " fill="#2F717A" transform="translate(0,0)"/>
<path d="M0 0 C0.83395294 0.24114784 0.83395294 0.24114784 1.68475342 0.48716736 C4.19495534 1.04318307 6.47371686 1.15988893 9.04394531 1.20532227 C10.04468079 1.22526749 11.04541626 1.24521271 12.07647705 1.26576233 C13.14952087 1.28247482 14.2225647 1.29918732 15.328125 1.31640625 C16.43226746 1.33718735 17.53640991 1.35796844 18.67401123 1.37937927 C22.19927783 1.44473646 25.72461859 1.50369564 29.25 1.5625 C31.64063265 1.60569836 34.03125782 1.64931307 36.421875 1.69335938 C42.28117173 1.80040372 48.14054214 1.90219585 54 2 C54 2.33 54 2.66 54 3 C36.84 3 19.68 3 2 3 C1.67 3.66 1.34 4.32 1 5 C0.67 3.35 0.34 1.7 0 0 Z " fill="#546067" transform="translate(53,1)"/>
<path d="M0 0 C1.98 0 3.96 0 6 0 C5.54917531 1.46067199 5.08906463 2.91848032 4.625 4.375 C4.36976562 5.18710937 4.11453125 5.99921875 3.8515625 6.8359375 C3 9 3 9 1 11 C0.67 10.01 0.34 9.02 0 8 C-0.99 8.33 -1.98 8.66 -3 9 C-2.01 6.03 -1.02 3.06 0 0 Z " fill="#178190" transform="translate(86,21)"/>
<path d="M0 0 C2 1 2 1 4 4 C5.32 4 6.64 4 8 4 C6.25 9.75 6.25 9.75 4 12 C3.3291288 10.3767313 2.66342971 8.75132422 2 7.125 C1.62875 6.22007813 1.2575 5.31515625 0.875 4.3828125 C0 2 0 2 0 0 Z " fill="#167F89" transform="translate(59,40)"/>
<path d="M0 0 C2.80561393 1.40280696 3.00680507 3.0509005 4.125 5.9375 C4.47820313 6.83339844 4.83140625 7.72929687 5.1953125 8.65234375 C6 11 6 11 6 13 C5.34 13 4.68 13 4 13 C4 11.68 4 10.36 4 9 C1.03 8.505 1.03 8.505 -2 8 C-1.47731534 5.23723823 -0.89130413 2.6739124 0 0 Z " fill="#267E8B" transform="translate(53,15)"/>
<path d="M0 0 C1.65 0.99 3.3 1.98 5 3 C4.01 4.32 3.02 5.64 2 7 C-2.875 5.25 -2.875 5.25 -4 3 C-3.01 2.67 -2.02 2.34 -1 2 C-0.67 1.34 -0.34 0.68 0 0 Z " fill="#4B5356" transform="translate(40,22)"/>
<path d="M0 0 C2.125 0.375 2.125 0.375 4 1 C3.67 1.33 3.34 1.66 3 2 C3.99 2.66 4.98 3.32 6 4 C4.35 4.66 2.7 5.32 1 6 C0.01 4.68 -0.98 3.36 -2 2 C-1.34 1.34 -0.68 0.68 0 0 Z " fill="#3B484F" transform="translate(26,22)"/>
<path d="M0 0 C0.66 0 1.32 0 2 0 C1.01 3.3 0.02 6.6 -1 10 C-1.66 10 -2.32 10 -3 10 C-3.33 8.68 -3.66 7.36 -4 6 C-3.34 6 -2.68 6 -2 6 C-2 5.34 -2 4.68 -2 4 C-1.34 4 -0.68 4 0 4 C0 2.68 0 1.36 0 0 Z " fill="#2B7E89" transform="translate(81,42)"/>
<path d="M0 0 C1.98 0 3.96 0 6 0 C5.34 1.32 4.68 2.64 4 4 C4 3.34 4 2.68 4 2 C3.34 2 2.68 2 2 2 C2 2.66 2 3.32 2 4 C1.01 4.33 0.02 4.66 -1 5 C-0.67 3.35 -0.34 1.7 0 0 Z " fill="#328790" transform="translate(86,21)"/>
<path d="M0 0 C0.99 0.33 1.98 0.66 3 1 C2.67 2.65 2.34 4.3 2 6 C1.01 6.33 0.02 6.66 -1 7 C-0.67 4.69 -0.34 2.38 0 0 Z " fill="#424D51" transform="translate(45,50)"/>
<path d="M0 0 C2.475 0.495 2.475 0.495 5 1 C5.33 2.32 5.66 3.64 6 5 C4.02 4.34 2.04 3.68 0 3 C0 2.01 0 1.02 0 0 Z " fill="#4C5860" transform="translate(28,21)"/>
</svg>
